<?xml version="1.0" encoding="UTF-8" standalone="no"?>
<svg
   id="Layer_1"
   data-name="Layer 1"
   width="806.1"
   height="598.97"
   viewBox="0 0 806.1 598.97"
   version="1.1"
   sodipodi:docname="base.svg"
   inkscape:version="1.2.2 (732a01da63, 2022-12-09)"
   xmlns:inkscape="http://www.inkscape.org/namespaces/inkscape"
   xmlns:sodipodi="http://sodipodi.sourceforge.net/DTD/sodipodi-0.dtd"
   xmlns="http://www.w3.org/2000/svg"
   xmlns:svg="http://www.w3.org/2000/svg">
  <sodipodi:namedview
     id="namedview784"
     pagecolor="#ffffff"
     bordercolor="#000000"
     borderopacity="0.25"
     inkscape:showpageshadow="2"
     inkscape:pageopacity="0.0"
     inkscape:pagecheckerboard="0"
     inkscape:deskcolor="#d1d1d1"
     showgrid="false"
     inkscape:zoom="1.3840427"
     inkscape:cx="393.05146"
     inkscape:cy="205.91851"
     inkscape:window-width="1920"
     inkscape:window-height="1009"
     inkscape:window-x="-8"
     inkscape:window-y="-8"
     inkscape:window-maximized="1"
     inkscape:current-layer="Layer_1" />
  <defs
     id="defs491">
    <style
       id="style394">
      .cls-1 {
        fill: none;
      }

      .cls-2 {
        fill: #b3b3b3;
      }

      .cls-3 {
        fill: #0d0e13;
      }

      .cls-4 {
        opacity: 0.06;
      }

      .cls-5 {
        fill: #fff;
      }

      .cls-6 {
        fill: #13161f;
      }

      .cls-7 {
        fill: #0f1015;
      }

      .cls-8 {
        fill: #121212;
      }

      .cls-9 {
        fill: #080808;
      }

      .cls-10 {
        fill: #1f1f1f;
      }

      .cls-11 {
        fill: #e6e6e6;
        opacity: 0.1;
      }

      .cls-11, .cls-12, .cls-13, .cls-14, .cls-17 {
        isolation: isolate;
      }

      .cls-12, .cls-14, .cls-29 {
        opacity: 0.08;
      }

      .cls-12 {
        fill: url(#SVGID_4_);
      }

      .cls-13 {
        opacity: 0.22;
      }

      .cls-14 {
        fill: url(#SVGID_5_);
      }

      .cls-15 {
        fill: #10111a;
      }

      .cls-16 {
        fill: #1a1a1a;
      }

      .cls-17 {
        opacity: 0.25;
      }

      .cls-18 {
        opacity: 0.12;
      }

      .cls-19 {
        fill: #0b0b0f;
      }

      .cls-20 {
        fill: url(#SVGID_6_);
      }

      .cls-21 {
        fill: #0f0f0f;
      }

      .cls-22 {
        fill: #f66;
      }

      .cls-23 {
        fill: #7cb2e8;
      }

      .cls-24 {
        fill: #ff69f8;
      }

      .cls-25 {
        fill: #40e2a0;
      }

      .cls-26 {
        fill: #050505;
        stroke: #000;
        stroke-miterlimit: 10;
        stroke-width: 2px;
      }

      .cls-27 {
        fill: #f2f2f2;
      }

      .cls-28 {
        fill: #0a0a0a;
      }

      .cls-30 {
        fill: #ccc;
      }
    </style>
    <pattern
       id="SVGID_4_"
       data-name="SVGID 4 "
       width="40"
       height="103"
       patternTransform="translate(-10082.69 7243.51) rotate(16) scale(0.34)"
       patternUnits="userSpaceOnUse"
       viewBox="0 0 40 103">
      <rect
         class="cls-1"
         width="40"
         height="103"
         id="rect396" />
      <g
         id="g434">
        <polygon
           class="cls-1"
           points="0 0 40 0 40 103 0 103 0 0"
           id="polygon398" />
        <g
           id="g432">
          <polygon
             class="cls-1"
             points="0 0 40 0 40 103 0 103 0 0"
             id="polygon400" />
          <polygon
             points="34.5 231.8 37.5 231.8 37.5 77.3 34.5 77.3 34.5 231.8"
             id="polygon402" />
          <polygon
             points="26.5 231.8 29.5 231.8 29.5 77.3 26.5 77.3 26.5 231.8"
             id="polygon404" />
          <polygon
             points="18.5 231.8 21.5 231.8 21.5 77.3 18.5 77.3 18.5 231.8"
             id="polygon406" />
          <polygon
             points="10.5 231.8 13.5 231.8 13.5 77.3 10.5 77.3 10.5 231.8"
             id="polygon408" />
          <polygon
             points="2.5 231.8 5.5 231.8 5.5 77.3 2.5 77.3 2.5 231.8"
             id="polygon410" />
          <polygon
             points="34.5 128.8 37.5 128.8 37.5 -25.7 34.5 -25.7 34.5 128.8"
             id="polygon412" />
          <polygon
             points="26.5 128.8 29.5 128.8 29.5 -25.7 26.5 -25.7 26.5 128.8"
             id="polygon414" />
          <polygon
             points="18.5 128.8 21.5 128.8 21.5 -25.7 18.5 -25.7 18.5 128.8"
             id="polygon416" />
          <polygon
             points="10.5 128.8 13.5 128.8 13.5 -25.7 10.5 -25.7 10.5 128.8"
             id="polygon418" />
          <polygon
             points="2.5 128.8 5.5 128.8 5.5 -25.7 2.5 -25.7 2.5 128.8"
             id="polygon420" />
          <polygon
             points="34.5 25.8 37.5 25.8 37.5 -128.7 34.5 -128.7 34.5 25.8"
             id="polygon422" />
          <polygon
             points="26.5 25.8 29.5 25.8 29.5 -128.7 26.5 -128.7 26.5 25.8"
             id="polygon424" />
          <polygon
             points="18.5 25.8 21.5 25.8 21.5 -128.7 18.5 -128.7 18.5 25.8"
             id="polygon426" />
          <polygon
             points="10.5 25.8 13.5 25.8 13.5 -128.7 10.5 -128.7 10.5 25.8"
             id="polygon428" />
          <polygon
             points="2.5 25.8 5.5 25.8 5.5 -128.7 2.5 -128.7 2.5 25.8"
             id="polygon430" />
        </g>
      </g>
    </pattern>
    <pattern
       id="SVGID_5_"
       data-name="SVGID 5 "
       width="40"
       height="103"
       patternTransform="matrix(-0.33, 0.09, 0.09, 0.33, -21062.21, 7272.07)"
       patternUnits="userSpaceOnUse"
       viewBox="0 0 40 103">
      <rect
         class="cls-1"
         width="40"
         height="103"
         id="rect437" />
      <g
         id="g475">
        <polygon
           class="cls-1"
           points="0 0 40 0 40 103 0 103 0 0"
           id="polygon439" />
        <g
           id="g473">
          <polygon
             class="cls-1"
             points="0 0 40 0 40 103 0 103 0 0"
             id="polygon441" />
          <polygon
             points="34.5 231.8 37.5 231.8 37.5 77.3 34.5 77.3 34.5 231.8"
             id="polygon443" />
          <polygon
             points="26.5 231.8 29.5 231.8 29.5 77.3 26.5 77.3 26.5 231.8"
             id="polygon445" />
          <polygon
             points="18.5 231.8 21.5 231.8 21.5 77.3 18.5 77.3 18.5 231.8"
             id="polygon447" />
          <polygon
             points="10.5 231.8 13.5 231.8 13.5 77.3 10.5 77.3 10.5 231.8"
             id="polygon449" />
          <polygon
             points="2.5 231.8 5.5 231.8 5.5 77.3 2.5 77.3 2.5 231.8"
             id="polygon451" />
          <polygon
             points="34.5 128.8 37.5 128.8 37.5 -25.7 34.5 -25.7 34.5 128.8"
             id="polygon453" />
          <polygon
             points="26.5 128.8 29.5 128.8 29.5 -25.7 26.5 -25.7 26.5 128.8"
             id="polygon455" />
          <polygon
             points="18.5 128.8 21.5 128.8 21.5 -25.7 18.5 -25.7 18.5 128.8"
             id="polygon457" />
          <polygon
             points="10.5 128.8 13.5 128.8 13.5 -25.7 10.5 -25.7 10.5 128.8"
             id="polygon459" />
          <polygon
             points="2.5 128.8 5.5 128.8 5.5 -25.7 2.5 -25.7 2.5 128.8"
             id="polygon461" />
          <polygon
             points="34.5 25.8 37.5 25.8 37.5 -128.7 34.5 -128.7 34.5 25.8"
             id="polygon463" />
          <polygon
             points="26.5 25.8 29.5 25.8 29.5 -128.7 26.5 -128.7 26.5 25.8"
             id="polygon465" />
          <polygon
             points="18.5 25.8 21.5 25.8 21.5 -128.7 18.5 -128.7 18.5 25.8"
             id="polygon467" />
          <polygon
             points="10.5 25.8 13.5 25.8 13.5 -128.7 10.5 -128.7 10.5 25.8"
             id="polygon469" />
          <polygon
             points="2.5 25.8 5.5 25.8 5.5 -128.7 2.5 -128.7 2.5 25.8"
             id="polygon471" />
        </g>
      </g>
    </pattern>
    <pattern
       id="SVGID_6_"
       data-name="SVGID 6 "
       width="71"
       height="71"
       patternTransform="translate(-13881.41 2292.1) scale(0.1)"
       patternUnits="userSpaceOnUse"
       viewBox="0 0 71 71">
      <rect
         class="cls-1"
         width="71"
         height="71"
         id="rect478" />
      <g
         id="g488">
        <polygon
           class="cls-1"
           points="0 0 71 0 71 71 0 71 0 0"
           id="polygon480" />
        <g
           id="g486">
          <polygon
             class="cls-1"
             points="0 0 71 0 71 71 0 71 0 0"
             id="polygon482" />
          <path
             class="cls-2"
             d="M41.8,35.5a6.3,6.3,0,1,1-6.3-6.3A6.27,6.27,0,0,1,41.8,35.5Z"
             id="path484" />
        </g>
      </g>
    </pattern>
  </defs>
  <g
     id="g583"
     style="stroke:#000000;fill:none;fill-opacity:0.80000001;stroke-opacity:0.80000001">
    <g
       id="g549"
       style="stroke:#000000;fill:none;fill-opacity:0.80000001;stroke-opacity:0.80000001">
      <path
         class="cls-15"
         d="M240.5,143.5A12.5,12.5,0,0,0,228,156v18.3a12.5,12.5,0,0,0,25,0V156A12.5,12.5,0,0,0,240.5,143.5Z"
         transform="translate(0 0)"
         id="path547"
         style="stroke:#000000;fill:none;fill-opacity:0.80000001;stroke-opacity:0.80000001" />
    </g>
    <g
       id="g555"
       style="stroke:#000000;fill:none;fill-opacity:0.80000001;stroke-opacity:0.80000001">
      <path
         class="cls-15"
         d="M565.5,143.5A12.5,12.5,0,0,0,553,156v18.3a12.5,12.5,0,0,0,25,0V156A12.5,12.5,0,0,0,565.5,143.5Z"
         transform="translate(0 0)"
         id="path553"
         style="stroke:#000000;fill:none;fill-opacity:0.80000001;stroke-opacity:0.80000001" />
    </g>
    <g
       id="g581"
       style="stroke:#000000;fill:none;fill-opacity:0.80000001;stroke-opacity:0.80000001">
      <g
         id="g561"
         style="stroke:#000000;fill:none;fill-opacity:0.80000001;stroke-opacity:0.80000001">
        <path
           class="cls-16"
           d="M141.2,247.2c1.4-2,1.2-2.9,1.2-2.9s.2-.9-1.2-2.9-15-13.6-15.7-14-28.5-2.2-31.4,1.3-2.6,15.6-2.6,15.6-.3,12.1,2.6,15.6,30.7,1.7,31.4,1.3S139.8,249.2,141.2,247.2Z"
           transform="translate(0 0)"
           id="path557"
           style="stroke:#000000;fill:none;fill-opacity:0.80000001;stroke-opacity:0.80000001" />
      </g>
      <g
         id="g567"
         style="stroke:#000000;fill:none;fill-opacity:0.80000001;stroke-opacity:0.80000001">
        <path
           class="cls-16"
           d="M151,231.6c2,1.4,2.9,1.2,2.9,1.2s.9.2,2.9-1.2,13.6-15,14-15.7,2.2-28.5-1.3-31.4-15.6-2.6-15.6-2.6-12.1-.3-15.6,2.6-1.7,30.7-1.3,31.4S149,230.2,151,231.6Z"
           transform="translate(0 0)"
           id="path563"
           style="stroke:#000000;fill:none;fill-opacity:0.80000001;stroke-opacity:0.80000001" />
      </g>
      <g
         id="g573"
         style="stroke:#000000;fill:none;fill-opacity:0.80000001;stroke-opacity:0.80000001">
        <path
           class="cls-16"
           d="M213.7,228.8c-2.9-3.5-30.7-1.7-31.4-1.3s-14.3,12-15.7,14-1.2,2.9-1.2,2.9-.2.9,1.2,2.9,15,13.6,15.7,14,28.5,2.2,31.4-1.3,2.6-15.6,2.6-15.6S216.6,232.3,213.7,228.8Z"
           transform="translate(0 0)"
           id="path569"
           style="stroke:#000000;fill:none;fill-opacity:0.80000001;stroke-opacity:0.80000001" />
      </g>
      <g
         id="g579"
         style="stroke:#000000;fill:none;fill-opacity:0.80000001;stroke-opacity:0.80000001">
        <path
           class="cls-16"
           d="M156.8,257.1c-2-1.4-2.9-1.2-2.9-1.2s-.9-.2-2.9,1.2-13.6,15-14,15.7-2.2,28.5,1.3,31.4,15.6,2.6,15.6,2.6,12.1.3,15.6-2.6,1.7-30.7,1.3-31.4S158.8,258.5,156.8,257.1Z"
           transform="translate(0 0)"
           id="path575"
           style="stroke:#000000;fill:none;fill-opacity:0.80000001;stroke-opacity:0.80000001" />
      </g>
    </g>
  </g>
  <g
     id="g653"
     style="stroke:#000000;fill:none;fill-opacity:0.80000001;stroke-opacity:0.80000001">
    <path
       class="cls-9"
       d="M530.4,124.3a1.9,1.9,0,0,0-1.9-1.9H277.4a1.9,1.9,0,0,0-1.9,1.9V253.5a15.62,15.62,0,0,0,15.6,15.6H514.9a15.62,15.62,0,0,0,15.6-15.6V130.4Z"
       transform="translate(0 0)"
       id="path647"
       style="stroke:#000000;fill:none;fill-opacity:0.80000001;stroke-opacity:0.80000001" />
  </g>
  <g
     id="g695"
     style="stroke:#000000;fill:none;fill-opacity:0.80000001;stroke-opacity:0.80000001">
    <g
       id="g663"
       style="stroke:#000000;fill:none;fill-opacity:0.80000001;stroke-opacity:0.80000001">
      <g
         id="g659"
         style="stroke:#000000;fill:none;fill-opacity:0.80000001;stroke-opacity:0.80000001">
        <path
           class="cls-16"
           d="M709.9,271a26.3,26.3,0,1,1,26.3-26.3A26.33,26.33,0,0,1,709.9,271Z"
           id="path655"
           transform="translate(0 0)"
           style="stroke:#000000;fill:none;fill-opacity:0.80000001;stroke-opacity:0.80000001" />
      </g>
      <path
         class="cls-22"
         d="M709.9,225.9a18.9,18.9,0,1,0,18.9,18.9A18.95,18.95,0,0,0,709.9,225.9Zm0,34.9a16,16,0,1,1,16-16A16,16,0,0,1,709.9,260.8Z"
         transform="translate(0 0)"
         id="path661"
         style="stroke:#000000;fill:none;fill-opacity:0.80000001;stroke-opacity:0.80000001" />
    </g>
    <g
       id="g673"
       style="stroke:#000000;fill:none;fill-opacity:0.80000001;stroke-opacity:0.80000001">
      <g
         id="g669"
         style="stroke:#000000;fill:none;fill-opacity:0.80000001;stroke-opacity:0.80000001">
        <path
           class="cls-16"
           d="M652.3,328.6a26.3,26.3,0,1,1,26.3-26.3A26.33,26.33,0,0,1,652.3,328.6Z"
           transform="translate(0 0)"
           id="path665"
           style="stroke:#000000;fill:none;fill-opacity:0.80000001;stroke-opacity:0.80000001" />
      </g>
      <polygon
         class="cls-23"
         points="666.7 290 664.7 288 652.3 300.4 640 288 638 290 650.3 302.4 638 314.7 640 316.7 652.3 304.4 664.7 316.7 666.7 314.7 654.3 302.4 666.7 290"
         id="polygon671"
         style="stroke:#000000;fill:none;fill-opacity:0.80000001;stroke-opacity:0.80000001" />
    </g>
    <g
       id="g683"
       style="stroke:#000000;fill:none;fill-opacity:0.80000001;stroke-opacity:0.80000001">
      <g
         id="g679"
         style="stroke:#000000;fill:none;fill-opacity:0.80000001;stroke-opacity:0.80000001">
        <path
           class="cls-16"
           d="M594.8,271a26.3,26.3,0,1,1,26.3-26.3A26.33,26.33,0,0,1,594.8,271Z"
           id="path675"
           transform="translate(0 0)"
           style="stroke:#000000;fill:none;fill-opacity:0.80000001;stroke-opacity:0.80000001" />
      </g>
      <path
         class="cls-24"
         d="M606.3,230.4H580.5V259h28.6V230.4Zm0,25.9h-23v-23h23Z"
         id="path681"
         transform="translate(0 0)"
         style="stroke:#000000;fill:none;fill-opacity:0.80000001;stroke-opacity:0.80000001" />
    </g>
    <g
       id="g693"
       style="stroke:#000000;fill:none;fill-opacity:0.80000001;stroke-opacity:0.80000001">
      <g
         id="g689"
         style="stroke:#000000;fill:none;fill-opacity:0.80000001;stroke-opacity:0.80000001">
        <path
           class="cls-16"
           d="M652.3,213.5a26.3,26.3,0,1,1,26.3-26.3A26.33,26.33,0,0,1,652.3,213.5Z"
           transform="translate(0 0)"
           id="path685"
           style="stroke:#000000;fill:none;fill-opacity:0.80000001;stroke-opacity:0.80000001" />
      </g>
      <path
         class="cls-25"
         d="M668.3,195.2l-16-27.6-16,27.6-1.6,2.8h35.2Zm-16,0H639.6l12.7-21.9L665,195.2Z"
         transform="translate(0 0)"
         id="path691"
         style="stroke:#000000;fill:none;fill-opacity:0.80000001;stroke-opacity:0.80000001" />
    </g>
  </g>
  <g
     id="g721"
     style="stroke:#000000;fill:none;fill-opacity:0.80000001;stroke-opacity:0.80000001">
    <g
       id="g713"
       style="stroke:#000000;fill:none;fill-opacity:0.80000001;stroke-opacity:0.80000001">
      <path
         class="cls-28"
         d="M697.2,109.9a2.14,2.14,0,0,0-1.1-1.9c-4.5-2.9-23.4-13.6-51.5-13.6-26.9,0-41.1,5.9-45.1,8a2.2,2.2,0,0,0-1.2,2s9.8-2.9,47.5-2.9S697.2,109.9,697.2,109.9Z"
         transform="translate(0 0)"
         id="path709"
         style="stroke:#000000;fill:none;fill-opacity:0.80000001;stroke-opacity:0.80000001" />
      <path
         class="cls-8"
         d="M697.1,116.8h0v-6.9s-13.7-8.4-51.4-8.4-47.5,2.9-47.5,2.9v11h0c7.7-1.3,21.2-2.6,44.1-2.6C670.8,112.9,688.2,115.2,697.1,116.8Z"
         transform="translate(0 0)"
         id="path711"
         style="stroke:#000000;fill:none;fill-opacity:0.80000001;stroke-opacity:0.80000001" />
    </g>
    <g
       id="g719"
       style="stroke:#000000;fill:none;fill-opacity:0.80000001;stroke-opacity:0.80000001">
      <path
         class="cls-28"
         d="M108.8,109.9a2.14,2.14,0,0,1,1.1-1.9c4.5-2.9,23.4-13.6,51.5-13.6,26.9,0,41.1,5.9,45.1,8a2.2,2.2,0,0,1,1.2,2s-9.8-2.9-47.5-2.9S108.8,109.9,108.8,109.9Z"
         transform="translate(0 0)"
         id="path715"
         style="stroke:#000000;fill:none;fill-opacity:0.80000001;stroke-opacity:0.80000001" />
      <path
         class="cls-8"
         d="M108.9,116.8h0v-6.9s13.7-8.4,51.4-8.4,47.5,2.9,47.5,2.9v11h0c-7.7-1.3-21.2-2.6-44.1-2.6C135.2,112.9,117.8,115.2,108.9,116.8Z"
         transform="translate(0 0)"
         id="path717"
         style="stroke:#000000;fill:none;fill-opacity:0.80000001;stroke-opacity:0.80000001" />
    </g>
  </g>
  <g
     id="g751"
     style="stroke:#000000;fill:none;fill-opacity:0.80000001;stroke-opacity:0.80000001">
    <g
       id="g735"
       style="stroke:#000000;fill:none;fill-opacity:0.80000001;stroke-opacity:0.80000001">
      <g
         id="g727"
         style="stroke:#000000;fill:none;fill-opacity:0.80000001;stroke-opacity:0.80000001">
        <path
           class="cls-8"
           d="M697.2,90.8s-32.7-3.2-50.6-3.2S598.2,90,598.2,90s3.1-44.7,4.8-52,7.7-21.3,16.9-27.9S631.8,0,642.6,0,668,6.4,677.2,21.4,697.2,90.8,697.2,90.8Z"
           transform="translate(0 0)"
           id="path723"
           style="stroke:#000000;fill:none;fill-opacity:0.80000001;stroke-opacity:0.80000001" />
      </g>
    </g>
    <g
       id="g749"
       style="stroke:#000000;fill:none;fill-opacity:0.80000001;stroke-opacity:0.80000001">
      <g
         id="g741"
         style="stroke:#000000;fill:none;fill-opacity:0.80000001;stroke-opacity:0.80000001">
        <path
           class="cls-8"
           d="M108.8,90.8s32.7-3.2,50.6-3.2S207.7,90,207.7,90s-3.1-44.7-4.8-52S195.2,16.7,186,10.1,174.2,0,163.4,0,138,6.4,128.8,21.4,108.8,90.8,108.8,90.8Z"
           transform="translate(0 0)"
           id="path737"
           style="stroke:#000000;fill:none;fill-opacity:0.80000001;stroke-opacity:0.80000001" />
      </g>
    </g>
  </g>
</svg>
