<?xml version="1.0" encoding="UTF-8" standalone="no"?>
<svg
   id="Layer_1"
   data-name="Layer 1"
   width="263.8"
   height="151.2"
   viewBox="0 0 263.8 151.2"
   version="1.1"
   sodipodi:docname="touchpad.svg"
   inkscape:version="1.2.2 (732a01da63, 2022-12-09)"
   xmlns:inkscape="http://www.inkscape.org/namespaces/inkscape"
   xmlns:sodipodi="http://sodipodi.sourceforge.net/DTD/sodipodi-0.dtd"
   xmlns="http://www.w3.org/2000/svg"
   xmlns:svg="http://www.w3.org/2000/svg">
  <sodipodi:namedview
     id="namedview5925"
     pagecolor="#ffffff"
     bordercolor="#000000"
     borderopacity="0.25"
     inkscape:showpageshadow="2"
     inkscape:pageopacity="0.0"
     inkscape:pagecheckerboard="0"
     inkscape:deskcolor="#d1d1d1"
     showgrid="false"
     inkscape:zoom="2.4052313"
     inkscape:cx="144.26887"
     inkscape:cy="101.44554"
     inkscape:window-width="1920"
     inkscape:window-height="1009"
     inkscape:window-x="-8"
     inkscape:window-y="-8"
     inkscape:window-maximized="1"
     inkscape:current-layer="Layer_1" />
  <defs
     id="defs5910">
    <style
       id="style5899">
      .cls-1 {
        fill: none;
      }

      .cls-2 {
        fill: #4c4c4c;
      }

      .cls-3 {
        fill: #ededed;
      }

      .cls-4 {
        fill: #f7f7f7;
      }

      .cls-5 {
        opacity: 0.12;
      }

      .cls-6 {
        fill: url(#SVGID_1_);
      }
    </style>
    <pattern
       id="SVGID_1_"
       data-name="SVGID 1 "
       width="71"
       height="71"
       patternTransform="matrix(0.1, 0, 0, -0.1, -7927.93, 7486.73)"
       patternUnits="userSpaceOnUse"
       viewBox="0 0 71 71">
      <rect
         class="cls-1"
         width="71"
         height="71"
         id="rect5901" />
      <g
         id="g5907">
        <polygon
           class="cls-1"
           points="0 71 71 71 71 0 0 0 0 71"
           id="polygon5903" />
        <path
           class="cls-2"
           d="M41.8,35.5a6.3,6.3,0,1,0-6.3,6.3A6.27,6.27,0,0,0,41.8,35.5Z"
           id="path5905" />
      </g>
    </pattern>
  </defs>
  <g
     id="g5922">
    <path
       class="cls-3"
       d="M263.8,5.6A6.57,6.57,0,0,0,257.3,0H6.7A6.48,6.48,0,0,0,.2,5.6,14.77,14.77,0,0,0,.1,7.7V135.1a16.09,16.09,0,0,0,16.1,16.1H247.8a16.09,16.09,0,0,0,16.1-16.1V7.7A13.42,13.42,0,0,0,263.8,5.6Z"
       transform="translate(-0.1)"
       id="path5912" />
  </g>
</svg>
